# xmcd CD database file
#
# Track frame offsets:
#	150
#	21125
#	37215
#
# Disc length: 773 seconds
#
# Revision: 3
# Processed by: cddbd v1.5.2PL0 Copyright (c) Steve Scherf et al.
# Submitted via: CDex 1.70beta2
#
DISCID=20030303
DTITLE=池田聡 - 悲しみにキリがない
DYEAR=1999
DGENRE=J-POP
TTITLE0=悲しみにキリがない
TTITLE1=偶然の幸せ
TTITLE2=悲しみにキリがない（オリジナル・カラオケ）
EXTD=YEAR: 1999
EXTT0=
EXTT1=
EXTT2=
PLAYORDER=
